# xmcd CD database file
#
# Track frame offsets:
#	150
#	24725
#	51468
#	74997
#	98038
#	111573
#	139745
#	160458
#
# Disc length: 2305 seconds
#
# Revision: 0
# Processed by: cddbd v1.5.2PL0 Copyright (c) Steve Scherf et al.
# Submitted via: CDex 1.70beta2
#
DISCID=7f08ff08
DTITLE=Scrootch - OhNE
DYEAR=2012
DGENRE=Jazz
TTITLE0=Ohne
TTITLE1=The good minor
TTITLE2=Reise
TTITLE3=Aufgestaut
TTITLE4=Work and Progress
TTITLE5=La Mesha
TTITLE6=Rodeo
TTITLE7=F&A
EXTD=YEAR: 2012
EXTT0=
EXTT1=
EXTT2=
EXTT3=
EXTT4=
EXTT5=
EXTT6=
EXTT7=
PLAYORDER=
